<?xml version="1.0" encoding="UTF-8"?> <!-- Generator: Adobe Illustrator 23.0.2, SVG Export Plug-In . SVG Version: 6.00 Build 0) --> <svg xmlns="http://www.w3.org/2000/svg" xmlns:xlink="http://www.w3.org/1999/xlink" id="Layer_1" x="0px" y="0px" viewBox="0 0 203.33 85.02" style="enable-background:new 0 0 203.33 85.02;" xml:space="preserve"> <style type="text/css"> .st0{fill:#322F30;} </style> <g> <g> <path class="st0" d="M125.97,46.15h-5.96c-0.68,0-1.24-0.55-1.24-1.24V32.52h-8.98v12.39c0,0.68-0.55,1.24-1.24,1.24h-5.96 c-0.68,0-1.24-0.55-1.24-1.24v-31.9c0-0.68,0.55-1.24,1.24-1.24h5.96c0.68,0,1.24,0.55,1.24,1.24V25h8.98V13.01 c0-0.68,0.55-1.24,1.24-1.24h5.96c0.68,0,1.24,0.55,1.24,1.24v31.9C127.21,45.6,126.65,46.15,125.97,46.15z"></path> <path class="st0" d="M140.23,46.15h-5.96c-0.68,0-1.24-0.55-1.24-1.24v-31.9c0-0.68,0.55-1.24,1.24-1.24h5.96 c0.68,0,1.24,0.55,1.24,1.24v31.9C141.47,45.6,140.92,46.15,140.23,46.15z"></path> <path class="st0" d="M169.56,41.7c0.51,0.51,0.48,1.36-0.07,1.83c-0.98,0.83-2.02,1.48-3.12,1.95c-1.47,0.64-3.27,0.96-5.41,0.96 c-3.82,0-7-1.29-9.54-3.87c-1.51-1.51-2.47-3.22-2.87-5.14c-0.41-1.92-0.61-4.35-0.61-7.31v-1.16v-1.16c0-2.96,0.2-5.4,0.61-7.32 c0.41-1.92,1.37-3.64,2.87-5.15c1.29-1.29,2.7-2.25,4.24-2.89c1.54-0.64,3.31-0.95,5.3-0.95c2.14,0,3.94,0.32,5.43,0.97 c1.1,0.48,2.13,1.12,3.09,1.92c0.56,0.46,0.59,1.32,0.08,1.83l-3.84,3.84c-0.45,0.45-1.18,0.49-1.66,0.08 c-0.33-0.28-0.64-0.5-0.95-0.67c-0.54-0.3-1.26-0.45-2.16-0.45c-1.43,0-2.52,0.48-3.28,1.44c-0.3,0.38-0.54,0.83-0.72,1.36 c-0.18,0.53-0.32,1.33-0.42,2.41c-0.1,1.08-0.15,2.66-0.15,4.75c0,2.78,0.1,4.74,0.31,5.86c0.2,1.12,0.53,2,0.99,2.63 c0.75,0.97,1.85,1.46,3.28,1.46c0.9,0,1.61-0.15,2.13-0.45c0.3-0.17,0.62-0.4,0.97-0.69c0.48-0.41,1.21-0.36,1.65,0.08 L169.56,41.7z"></path> <path class="st0" d="M201.37,46.15h-6.93c-0.45,0-0.86-0.24-1.08-0.63l-7.57-13.47l-2.9,3.32v9.54c0,0.68-0.55,1.24-1.24,1.24 h-5.92c-0.68,0-1.24-0.55-1.24-1.24v-31.9c0-0.68,0.55-1.24,1.24-1.24h5.92c0.68,0,1.24,0.55,1.24,1.24v10.93l9.58-11.71 c0.24-0.29,0.59-0.45,0.96-0.45h7.07c1.05,0,1.63,1.23,0.95,2.04l-10.02,11.87l11.01,18.6C202.92,45.11,202.33,46.15,201.37,46.15 z"></path> </g> <g> <path class="st0" d="M128.43,53l-5.38,19.67c-0.11,0.41-0.48,0.69-0.9,0.69h-2.93c-0.41,0-0.77-0.26-0.89-0.65l-3.26-9.98 l-3.28,9.98c-0.13,0.38-0.49,0.65-0.89,0.65h-2.91c-0.42,0-0.79-0.28-0.9-0.69L101.67,53c-0.16-0.6,0.28-1.19,0.9-1.19h3.58 c0.43,0,0.81,0.29,0.91,0.71l2.63,10.66l3.28-10.71c0.12-0.39,0.48-0.66,0.9-0.66h2.37c0.41,0,0.78,0.27,0.9,0.66l3.27,10.71 l2.65-10.67c0.1-0.42,0.48-0.71,0.91-0.71h3.56C128.14,51.81,128.59,52.4,128.43,53z"></path> <path class="st0" d="M145.91,62.58v0.72c0,1.2-0.04,2.24-0.13,3.1s-0.28,1.7-0.6,2.51s-0.8,1.54-1.45,2.19 c-0.8,0.8-1.68,1.4-2.64,1.81c-0.96,0.41-2.09,0.61-3.39,0.61c-0.88,0-1.67-0.09-2.37-0.27c-0.7-0.18-1.35-0.45-1.95-0.81 c-0.6-0.35-1.16-0.8-1.69-1.34c-0.94-0.95-1.55-2.02-1.8-3.22c-0.26-1.2-0.38-2.73-0.38-4.58v-0.72v-0.72 c0-1.85,0.13-3.38,0.38-4.59c0.26-1.21,0.86-2.28,1.8-3.23c0.82-0.82,1.7-1.42,2.65-1.82c0.95-0.39,2.07-0.59,3.36-0.59 c1.3,0,2.43,0.2,3.38,0.6c0.95,0.4,1.84,1,2.64,1.81c0.65,0.65,1.13,1.38,1.45,2.19c0.31,0.81,0.51,1.65,0.6,2.52 s0.13,1.9,0.13,3.1V62.58z M140.62,62.58c0-1.83-0.06-3.08-0.18-3.75c-0.12-0.67-0.32-1.18-0.6-1.54c-0.2-0.28-0.49-0.5-0.86-0.68 c-0.38-0.18-0.8-0.27-1.26-0.27c-0.45,0-0.86,0.09-1.23,0.26c-0.36,0.17-0.66,0.4-0.89,0.69c-0.18,0.23-0.32,0.51-0.44,0.83 c-0.11,0.33-0.2,0.84-0.26,1.52c-0.06,0.68-0.09,1.66-0.09,2.93c0,1.26,0.03,2.23,0.09,2.92c0.06,0.68,0.15,1.19,0.26,1.51 c0.11,0.33,0.26,0.6,0.44,0.83c0.5,0.65,1.21,0.98,2.11,0.98c0.92,0,1.63-0.33,2.13-0.98c0.28-0.38,0.48-0.9,0.6-1.54 C140.55,65.65,140.62,64.41,140.62,62.58z"></path> <path class="st0" d="M164.04,73.35h-3.99c-0.36,0-0.69-0.21-0.85-0.53l-3.57-7.49h-1.79v7.09c0,0.52-0.42,0.94-0.94,0.94h-3.41 c-0.52,0-0.94-0.42-0.94-0.94V52.75c0-0.52,0.42-0.94,0.94-0.94h7.6c1.55,0,2.87,0.32,3.97,0.97c1.1,0.65,1.94,1.49,2.52,2.55 c0.58,1.05,0.86,2.19,0.86,3.41c0,1.35-0.34,2.5-1.02,3.46c-0.68,0.96-1.51,1.68-2.48,2.16l3.94,7.62 C165.19,72.61,164.74,73.35,164.04,73.35z M159.15,58.75c0-0.38-0.09-0.74-0.27-1.08c-0.18-0.33-0.45-0.6-0.8-0.8 c-0.35-0.2-0.76-0.3-1.22-0.3h-3.01v4.34h3.01c0.46,0,0.87-0.1,1.22-0.3c0.35-0.2,0.62-0.47,0.8-0.8 C159.06,59.49,159.15,59.13,159.15,58.75z"></path> <path class="st0" d="M184.63,73.35h-3.97c-0.34,0-0.65-0.18-0.82-0.48l-4.7-8.36l-1.82,2.08v5.82c0,0.52-0.42,0.94-0.94,0.94 h-3.39c-0.52,0-0.94-0.42-0.94-0.94V52.75c0-0.52,0.42-0.94,0.94-0.94h3.39c0.52,0,0.94,0.42,0.94,0.94v6.69l5.95-7.28 c0.18-0.22,0.44-0.34,0.73-0.34h4.01c0.8,0,1.23,0.93,0.72,1.54l-6.06,7.18l6.76,11.41C185.8,72.56,185.35,73.35,184.63,73.35z"></path> <path class="st0" d="M203.33,66.76c0,1.41-0.37,2.62-1.12,3.65c-0.74,1.02-1.75,1.8-3.01,2.33c-1.27,0.53-2.66,0.79-4.19,0.79 c-1.78,0-3.33-0.21-4.65-0.64c-1-0.32-1.92-0.82-2.75-1.5c-0.43-0.35-0.46-1-0.07-1.4l2.11-2.11c0.32-0.32,0.82-0.35,1.2-0.1 c0.43,0.28,0.92,0.51,1.49,0.67c0.87,0.24,1.77,0.36,2.7,0.36c2.06,0,3.09-0.65,3.09-1.94c0-0.55-0.14-0.98-0.43-1.27 c-0.29-0.3-0.76-0.49-1.42-0.58l-2.6-0.37c-1.91-0.27-3.35-0.9-4.33-1.91c-0.99-1.01-1.48-2.46-1.48-4.33 c0-1.31,0.32-2.48,0.95-3.51c0.64-1.03,1.55-1.83,2.73-2.42c1.19-0.58,2.58-0.87,4.17-0.87c1.59,0,2.97,0.2,4.16,0.61 c0.86,0.29,1.63,0.72,2.33,1.26c0.44,0.34,0.47,1,0.07,1.4l-2.01,2.01c-0.33,0.33-0.84,0.35-1.22,0.09 c-0.37-0.26-0.76-0.43-1.17-0.53c-0.64-0.15-1.41-0.22-2.3-0.22c-0.85,0-1.49,0.2-1.94,0.61c-0.44,0.4-0.66,0.87-0.66,1.39 c0,0.38,0.14,0.72,0.43,1c0.33,0.34,0.83,0.55,1.48,0.64l2.6,0.35c1.89,0.28,3.3,0.87,4.24,1.79c0.56,0.54,0.97,1.2,1.22,1.97 C203.21,64.78,203.33,65.7,203.33,66.76z"></path> </g> </g> <g> <path class="st0" d="M47.82,22.74l1.37,13.21c0.05,0.5-0.34,0.93-0.84,0.93H34.03c-0.5,0-0.89-0.43-0.84-0.93l1.37-13.21 c0.1-0.95-0.85-1.66-1.73-1.31c-8.38,3.33-14.31,11.51-14.31,21.08c0,9.57,5.93,17.75,14.31,21.08c0.89,0.35,1.83-0.36,1.73-1.31 l-1.37-13.21c-0.05-0.5,0.34-0.93,0.84-0.93h14.32c0.5,0,0.89,0.43,0.84,0.93l-1.37,13.21c-0.1,0.95,0.85,1.66,1.73,1.31 c8.38-3.33,14.31-11.51,14.31-21.08c0-9.57-5.93-17.75-14.31-21.08C48.67,21.08,47.72,21.79,47.82,22.74z"></path> <path class="st0" d="M78.29,47.34c-0.15-0.2-0.22-0.44-0.19-0.69c0.15-1.36,0.24-2.74,0.24-4.14c0-1.4-0.09-2.78-0.24-4.14 c-0.03-0.25,0.04-0.49,0.19-0.69l3.88-5.01c0.18-0.23,0.25-0.54,0.17-0.83c-0.43-1.67-0.96-3.31-1.59-4.89 c-0.11-0.28-0.34-0.49-0.63-0.57l-6.07-1.77c-0.24-0.07-0.43-0.23-0.56-0.44c-1.38-2.42-3.02-4.68-4.89-6.72 c-0.17-0.18-0.26-0.42-0.25-0.67l0.19-6.32c0.01-0.3-0.12-0.58-0.35-0.77c-1.32-1.09-2.71-2.1-4.16-3.03 c-0.25-0.16-0.56-0.19-0.84-0.09l-5.95,2.14c-0.23,0.08-0.49,0.07-0.71-0.03c-2.5-1.14-5.15-2-7.91-2.56 c-0.24-0.05-0.46-0.19-0.59-0.39L44.5,0.51c-0.17-0.24-0.43-0.4-0.73-0.42C42.92,0.04,42.06,0,41.19,0s-1.73,0.04-2.59,0.09 c-0.29,0.02-0.56,0.17-0.73,0.42l-3.55,5.22c-0.14,0.2-0.35,0.34-0.59,0.39c-2.76,0.56-5.41,1.43-7.91,2.56 c-0.22,0.1-0.48,0.11-0.71,0.03l-5.95-2.14c-0.28-0.1-0.59-0.07-0.84,0.09c-1.45,0.93-2.84,1.94-4.16,3.03 c-0.23,0.19-0.36,0.48-0.35,0.77l0.19,6.32c0.01,0.25-0.08,0.48-0.25,0.67c-1.87,2.04-3.51,4.3-4.89,6.72 c-0.12,0.21-0.32,0.37-0.56,0.44l-6.07,1.77c-0.28,0.08-0.52,0.29-0.63,0.57c-0.62,1.59-1.16,3.22-1.59,4.89 c-0.07,0.29-0.01,0.59,0.17,0.83l3.88,5.01c0.15,0.2,0.22,0.44,0.19,0.69c-0.15,1.36-0.24,2.74-0.24,4.14 c0,1.4,0.09,2.78,0.24,4.14c0.03,0.25-0.04,0.49-0.19,0.69L0.2,52.35c-0.18,0.23-0.25,0.54-0.17,0.83 c0.43,1.67,0.96,3.31,1.59,4.89c0.11,0.28,0.34,0.49,0.63,0.57l6.07,1.77c0.24,0.07,0.43,0.23,0.56,0.44 c1.38,2.43,3.02,4.68,4.89,6.72c0.17,0.18,0.26,0.42,0.25,0.67l-0.19,6.32c-0.01,0.3,0.12,0.58,0.35,0.77 c1.32,1.09,2.71,2.1,4.16,3.03c0.25,0.16,0.56,0.19,0.84,0.09l5.95-2.14c0.23-0.08,0.49-0.07,0.71,0.03c2.5,1.14,5.15,2,7.91,2.56 c0.24,0.05,0.46,0.19,0.59,0.39l3.55,5.22c0.17,0.24,0.43,0.4,0.73,0.42c0.86,0.05,1.72,0.09,2.59,0.09s1.73-0.04,2.59-0.09 c0.29-0.02,0.56-0.17,0.73-0.42l3.55-5.22c0.14-0.2,0.35-0.34,0.59-0.39c2.76-0.56,5.41-1.43,7.91-2.56 c0.22-0.1,0.48-0.11,0.71-0.03l5.95,2.14c0.28,0.1,0.59,0.07,0.84-0.09c1.45-0.93,2.84-1.94,4.16-3.03 c0.23-0.19,0.36-0.48,0.35-0.77l-0.19-6.32c-0.01-0.25,0.08-0.48,0.25-0.67c1.87-2.04,3.51-4.3,4.89-6.72 c0.12-0.21,0.32-0.37,0.56-0.44l6.07-1.77c0.28-0.08,0.52-0.29,0.63-0.57c0.62-1.59,1.16-3.22,1.59-4.89 c0.07-0.29,0.01-0.59-0.17-0.83L78.29,47.34z M41.19,72.29c-16.46,0-29.77-13.32-29.77-29.77c0-16.46,13.32-29.77,29.77-29.77 c16.46,0,29.77,13.32,29.77,29.77C70.96,58.97,57.64,72.29,41.19,72.29z"></path> </g> </svg> 